<?xml version="1.0" encoding="UTF-8" standalone="no"?>
<!-- Created with Inkscape (http://www.inkscape.org/) -->

<svg
   version="1.1"
   id="svg1"
   width="643.09265"
   height="641.58234"
   viewBox="0 0 643.09267 641.58236"
   sodipodi:docname="cover_art.svg"
   inkscape:version="1.3-beta (cedbd6c, 2023-05-28)"
   xmlns:inkscape="http://www.inkscape.org/namespaces/inkscape"
   xmlns:sodipodi="http://sodipodi.sourceforge.net/DTD/sodipodi-0.dtd"
   xmlns="http://www.w3.org/2000/svg"
   xmlns:svg="http://www.w3.org/2000/svg">
  <defs
     id="defs1" />
  <sodipodi:namedview
     id="namedview1"
     pagecolor="#505050"
     bordercolor="#ffffff"
     borderopacity="1"
     inkscape:showpageshadow="0"
     inkscape:pageopacity="0"
     inkscape:pagecheckerboard="1"
     inkscape:deskcolor="#505050"
     inkscape:zoom="0.64233402"
     inkscape:cx="193.04598"
     inkscape:cy="249.87"
     inkscape:window-width="2048"
     inkscape:window-height="1152"
     inkscape:window-x="0"
     inkscape:window-y="0"
     inkscape:window-maximized="0"
     inkscape:current-layer="g1" />
  <g
     inkscape:groupmode="layer"
     inkscape:label="Image"
     id="g1"
     transform="translate(-371.80499,-339.54126)">
    <g
       id="g1245"
       transform="translate(10.897758,205.50056)">
      <path
         style="fill:#f6b212"
         d="m 656.66663,774.13585 c -39.43211,-7.58819 -70.92752,-28.25214 -84.72709,-55.58892 -9.04154,-17.9112 -9.4499,-19.81372 -10.5633,-49.21364 -1.10964,-29.30073 0.27543,-78.6571 2.54435,-90.66666 3.36687,-17.82108 18.69122,-40.74808 36.30879,-54.32215 5.49136,-4.23101 33.21429,-22.02222 59.43725,-38.1439 1.31339,-0.80746 1.66666,5.04137 1.66666,27.59342 v 28.61808 l -7.24108,4.08661 c -11.28096,6.36658 -24.0939,19.14321 -28.72117,28.63978 -7.67173,15.74471 -8.25449,20.67938 -7.79101,65.97272 l 0.41993,41.03705 5.02118,10.15468 c 8.11464,16.41078 23.79096,28.18457 42.16658,31.66943 10.26039,1.94584 27.43672,1.64583 37.17111,-0.64925 11.07857,-2.612 17.65515,-6.06596 47.287,-24.8347 13.73856,-8.70198 25.28856,-15.82177 25.66666,-15.82177 0.37811,0 0.68746,13.1383 0.68746,29.19624 v 29.19623 l -12.75933,8.26556 c -16.10707,10.43423 -34.18516,19.00287 -47.90733,22.70705 -13.63643,3.68105 -44.68541,4.79465 -58.66666,2.10414 z m 55.33333,-131.8387 v -28.36948 l 39,-25.88602 c 39.31904,-26.09778 117.37288,-76.61914 132.50773,-85.76735 4.49593,-2.71755 8.84593,-4.941 9.66667,-4.941 2.27889,0 1.88053,24.61571 -0.54934,33.9446 -5.95173,22.85025 -16.69345,33.41175 -68.53871,67.38873 -20.70128,13.56667 -50.03942,33.10817 -65.19586,43.42556 -24.774,16.86433 -43.63293,28.57444 -46.01863,28.57444 -0.47952,0 -0.87186,-12.76627 -0.87186,-28.36948 z m -313.40509,-25.96385 -4.59489,-5 5,4.59489 c 2.75,2.52718 5,4.77718 5,5 0,1.01816 -1.12829,0.059 -5.40511,-4.59489 z m 89.23503,-54.66667 c -1.6585,-2.11474 -1.61134,-2.1619 0.5034,-0.5034 1.28334,1.00646 2.33334,2.05646 2.33334,2.33333 0,1.09738 -1.09492,0.39107 -2.83674,-1.82993 z M 361.80659,517.99997 c -0.004,-6.6 0.2214,-9.4681 0.50103,-6.37356 0.27963,3.09453 0.28296,8.49453 0.007,11.99999 -0.27557,3.50546 -0.50436,0.97357 -0.50842,-5.62643 z m 641.32591,-75.33333 c 0,-6.23333 0.2297,-8.78333 0.5104,-5.66667 0.2807,3.11667 0.2807,8.21667 0,11.33334 -0.2807,3.11666 -0.5104,0.56666 -0.5104,-5.66667 z m -57.43607,-45.33333 c 0,-3.3 0.26002,-4.65 0.57782,-3 0.31781,1.65 0.31781,4.35 0,6 -0.3178,1.65 -0.57782,0.3 -0.57782,-3 z m -149.26971,-52 c 0,-4.76666 0.24199,-6.71666 0.53776,-4.33333 0.29577,2.38333 0.29577,6.28333 0,8.66667 -0.29577,2.38333 -0.53776,0.43333 -0.53776,-4.33334 z M 687.74996,184.4225 c 0.9625,-0.38516 2.1125,-0.33779 2.55555,0.10527 0.44306,0.44305 -0.34444,0.75818 -1.75,0.70029 -1.55325,-0.064 -1.86919,-0.37992 -0.80555,-0.80556 z"
         id="path1247" />
      <path
         style="fill:#04b4f3"
         d="m 790.70442,701.81997 0.0378,-30.48668 19.62886,-12.62271 c 57.33736,-36.87186 98.74204,-64.91691 105.84885,-71.69566 9.58634,-9.14382 18.25383,-21.85423 23.98221,-35.16863 3.8432,-8.9327 4.33112,-11.64023 5.25836,-29.17965 0.56215,-10.63334 1.06349,-21.88334 1.1141,-25 l 0.092,-5.66667 h 28.66667 28.66663 l -0.032,15.66667 c -0.06,29.56443 -1.9317,45.26657 -7.00818,58.78172 -6.32926,16.85037 -15.81407,32.18439 -27.6113,44.63895 -18.01332,19.01701 -17.27609,18.50679 -133.34898,92.28762 -21.63333,13.75106 -40.68333,25.88613 -42.33333,26.96682 l -3,1.9649 z m -78.67148,-166.15334 0.033,-25.66666 23.63368,-15.26773 c 58.97311,-38.09754 66.14941,-43.1525 77.63367,-54.68483 8.59747,-8.63345 12.51377,-13.80654 16.22329,-21.4295 9.33957,-19.19256 13.11005,-35.51888 13.11005,-56.76696 0,-11.8073 -2.34597,-34.16719 -4.05692,-38.66733 -1.47639,-3.88322 -1.25226,-3.89697 5.7767,-0.35455 16.29591,8.21272 34.40045,25.19824 41.90529,39.31517 14.3454,26.98431 10.33241,60.25172 -10.38904,86.12449 -9.50851,11.8723 -20.56168,21.15969 -40.83677,34.31295 -96.73361,62.75491 -121.56808,78.75162 -122.25981,78.75162 -0.44336,0 -0.79127,-11.55 -0.77313,-25.66667 z M 727.99996,444.2615 C 723.31714,442.60865 622.2158,380.32428 603.61405,367.63246 579.9591,351.4929 564.25278,327.56656 561.7795,303.90352 l -0.81191,-7.76792 23.18285,-15.15378 c 12.75057,-8.33458 25.43286,-16.51403 28.18286,-18.17655 l 5,-3.02278 0.0101,8.44208 c 0.0265,22.25621 5.49805,37.28004 17.6866,48.56448 9.39063,8.69407 34.41478,25.31969 74.96999,49.80878 16.13333,9.74204 36.83333,22.33242 45.99999,27.97861 9.16667,5.64618 17.82407,10.69867 19.23867,11.22774 2.28343,0.85401 1.75986,1.79176 -4.66667,8.35823 -7.49452,7.65773 -30.5739,25.75823 -36.94245,28.97291 -1.99625,1.00766 -4.52954,1.51444 -5.62954,1.12618 z m -366.209,-72.66675 c 2.21958,-28.87592 14.82716,-56.58092 34.60472,-76.04343 4.34938,-4.2801 13.38964,-11.84403 20.08946,-16.80874 9.45332,-7.0051 96.60737,-64.0535 131.18149,-85.86743 l 5.66667,-3.57528 -0.0172,29.68339 -0.0172,29.68339 -10.31611,6.61584 c -5.67386,3.63871 -27.71611,18.09601 -48.98278,32.12734 -33.29674,21.96854 -40.1794,27.09419 -49.55928,36.9077 -8.26536,8.64748 -12.19057,14.08385 -16.274,22.53931 -5.75636,11.91958 -9.50005,24.30255 -9.50005,31.42327 v 4.38653 h -28.86337 -28.86336 z"
         id="path1246" />
      <path
         style="fill:#f4381d"
         d="m 479.3333,671.85895 c -17.59999,-10.96138 -39.14919,-24.53039 -47.88709,-30.15336 -34.8669,-22.43736 -57.85939,-51.66375 -66.27796,-84.24777 -2.3935,-9.26403 -2.68574,-16.5555 -3.43842,-85.79118 l -0.8226,-75.66666 h 28.87971 28.8797 l 0.0264,66.99999 c 0.0149,37.6871 0.61311,71.08339 1.36741,76.33333 1.62951,11.34139 9.24319,27.44031 18.3303,38.75893 8.47172,10.5521 22.80351,21.76621 50.94254,39.86072 l 23.33334,15.00426 0.35884,29.52137 c 0.19736,16.23676 -0.10264,29.47385 -0.66667,29.41577 -0.56403,-0.0581 -15.42551,-9.07402 -33.02551,-20.0354 z m 25.03403,-96.36044 c -18.76372,-13.81306 -31.10645,-32.02762 -33.65649,-49.66793 -0.72859,-5.04017 -1.3366,-22.57814 -1.35112,-38.97326 -0.0222,-25.10506 0.27014,-29.69552 1.85276,-29.08821 1.91689,0.73558 65.09735,40.50215 71.81827,45.20331 l 3.69744,2.5863 -6.92537,7.55396 c -15.17603,16.55349 -23.22247,34.53938 -24.96589,55.80523 -0.4923,6.00488 -1.24642,11.26929 -1.67583,11.6987 -0.42941,0.42941 -4.38661,-1.87373 -8.79377,-5.1181 z m 55.63264,-116.9775 c -48.83017,-30.61447 -59.05859,-37.72799 -67.22619,-46.75348 -11.0151,-12.17208 -15.98817,-23.011 -16.05455,-34.99123 -0.0448,-8.0857 0.59263,-10.80447 4.29864,-18.33485 2.52228,-5.12511 7.29045,-11.73078 11.34389,-15.71546 8.77309,-8.62428 23.46623,-18.19431 24.21733,-15.77339 0.29249,0.94272 1.83696,6.21405 3.43216,11.71405 5.65104,19.48395 17.0984,36.94647 32.53383,49.6291 4.71079,3.87066 23.16528,16.28879 41.00998,27.59584 45.77635,29.00557 45.17026,28.59736 44.67806,30.09084 -0.56534,1.71543 -44.76314,31.35148 -46.75254,31.3491 -0.81434,-9.7e-4 -14.98061,-8.46571 -31.48061,-18.81052 z m 386.30199,-34.1877 c -0.79104,-57.11835 -1.22212,-60.9623 -8.45072,-75.35573 -4.89846,-9.75371 -15.60963,-23.94906 -22.97277,-30.44546 -3.41652,-3.01436 -16.41186,-12.21999 -28.87852,-20.45697 -31.07603,-20.53255 -144.22163,-92.33379 -157.33333,-99.8424 -29.19973,-16.72165 -58.2193,-18.39959 -86.66666,-5.01115 -10.03095,4.72096 -31.24216,17.58692 -58.65426,35.57756 -6.59318,4.32712 -12.74318,8.34731 -13.66667,8.93375 -1.33135,0.84544 -1.67906,-5.02815 -1.67906,-28.36324 v -29.42949 l 11.31941,-7.37837 c 33.53052,-21.8563 49.20052,-29.78989 70.04332,-35.46236 9.62386,-2.61918 14.47463,-3.07374 32.63726,-3.05838 19.37238,0.0164 22.55892,0.36551 34.66666,3.79813 17.6512,5.00424 32.96806,12.52438 58,28.47635 11.36667,7.24358 50.66666,32.2841 87.33333,55.6456 84.22384,53.66171 87.2037,55.67399 99.61964,67.27222 18.28477,17.08056 29.00569,34.2137 36.84116,58.87599 l 3.98955,12.55729 0.5767,58.33333 0.5766,58.33332 H 975.31978 947.03597 Z M 774.66662,405.61262 c -1.1,-0.38834 -8.9,-4.99159 -17.33333,-10.22946 -8.43333,-5.23787 -18.03333,-11.12089 -21.33333,-13.07338 -10.38586,-6.14492 -9.96311,-5.1852 -5.78204,-13.12646 3.61388,-6.86396 3.78204,-7.98595 3.78204,-25.23521 v -18.05187 l -4.66667,-7.75322 c -6.80997,-11.31411 -17.33838,-20.33317 -40.64196,-34.81555 L 667.99996,270.4685 v -20.66353 -20.66353 l 7.66667,0.88698 c 18.22718,2.10876 35.63671,8.23808 53.66666,18.89425 37.59616,22.22031 54.83522,40.57804 63.36745,67.47947 2.9003,9.14441 3.29921,12.81718 3.29921,30.3754 0,22.15191 -1.26847,27.89016 -10.19261,46.1087 -5.11239,10.43689 -8.06664,13.81162 -11.14072,12.72638 z"
         id="path1245" />
    </g>
  </g>
</svg>
